<svg xmlns="http://www.w3.org/2000/svg" viewBox="0 0 26.28 27.83"><defs><style>.cls-3{fill:#313131}</style></defs><g id="Capa_2" data-name="Capa 2"><g id="Capa_1-2" data-name="Capa 1"><path opacity=".05" fill="#313131" d="M.08.08h26.11v27.66H.08z"/><path fill="none" stroke="#313131" stroke-miterlimit="10" stroke-width=".17" d="M.08.08h26.11v27.66H.08z"/><path class="cls-3" d="M7.91 9.69v-.15a3.2 3.2 0 01.34-1.23 2.9 2.9 0 011-1.09 4.41 4.41 0 011.59-.63 4.71 4.71 0 01.72-.09h.07l.15 5-.1.05a1.53 1.53 0 00-.6.52 1.39 1.39 0 00-.22.63 2 2 0 00.1.84v.11a68.06 68.06 0 002 3.76c.28.52.57 1 .88 1.53a2.53 2.53 0 00.3.4 1.16 1.16 0 001 .37 1.93 1.93 0 00.76-.24l4 3.11h-.05a7.37 7.37 0 01-1.05.54 11 11 0 01-1.65.54H16l-.3-.06a5 5 0 01-1.33-.55 8.54 8.54 0 01-1.56-1.19 15.53 15.53 0 01-1.56-1.73c-.45-.57-.86-1.16-1.27-1.76-.16-.23-.31-.47-.45-.71a8.67 8.67 0 01-.7-1.59 15 15 0 01-.48-1.79 18.859 18.859 0 01-.34-2.31c-.03-.36-.01-.57-.01-.9v-.9z"/><path class="cls-3" d="M20.69 21.16l-.07.23-.28.87-4-3.2 1-.53a.25.25 0 01.16 0 1.17 1.17 0 01.54.22l.68.51 1.7 1.33a.81.81 0 01.26.35 1.25 1.25 0 010 .12zM12.3 6.48h.07a1.91 1.91 0 01.87.43l.11.12a.42.42 0 01.1.27v3.32a.14.14 0 010 .11l-.3.34a1.26 1.26 0 01-.4.26 1.06 1.06 0 01-.36.11c-.11 0-.15 0-.16-.14s0-.28 0-.42V6.54h.05z"/></g></g></svg>