<svg xmlns="http://www.w3.org/2000/svg" viewBox="0 0 26.28 27.83"><g data-name="Capa 2"><g data-name="Capa 1"><path opacity=".05" fill="#313131" d="M.08.08h26.11v27.66H.08z"/><path fill="none" stroke="#313131" stroke-miterlimit="10" stroke-width=".17" d="M.08.08h26.11v27.66H.08z"/><path d="M4.24 20.69h.34a7.46 7.46 0 002.62-.29 7.09 7.09 0 001.73-.77c.24-.15.46-.31.69-.48a3.71 3.71 0 01-3.41-2.55 3.92 3.92 0 00.82.06 3.39 3.39 0 00.81-.12 3.67 3.67 0 01-2.1-1.3 3.61 3.61 0 01-.81-2.34 3.68 3.68 0 001.65.46 3.68 3.68 0 01-1.12-4.85A10.46 10.46 0 0013 12.34c0-.12 0-.23-.06-.33a3.52 3.52 0 010-1 3.66 3.66 0 013-3.12 3.6 3.6 0 012.59.5 3.34 3.34 0 01.67.54.11.11 0 00.12 0 7.35 7.35 0 001.94-.7l.32-.18a3.7 3.7 0 01-1.58 2l.41-.07.42-.09.41-.11.4-.14.36-.08v.05a7.38 7.38 0 01-1.45 1.57l-.29.23a.08.08 0 000 .08v.75a9.33 9.33 0 01-.13 1.29 10.73 10.73 0 01-.53 2 11 11 0 01-.71 1.55 10.34 10.34 0 01-2.22 2.77 9.75 9.75 0 01-3.88 2.09 10.5 10.5 0 01-1.81.33 11.35 11.35 0 01-1.66 0 10.33 10.33 0 01-4.95-1.56l-.09-.05z" fill="#313131"/></g></g></svg>