<svg xmlns="http://www.w3.org/2000/svg" viewBox="0 0 26.28 27.83"><g data-name="Capa 2"><path d="M4.94 22.54l1.19-4.34c-.7-1.26-1.12-2.66-1.12-4.13 0-4.62 3.71-8.33 8.33-8.33 2.24 0 4.34.84 5.88 2.45a8.316 8.316 0 012.45 5.88c0 4.62-3.71 8.33-8.33 8.33-1.4 0-2.8-.35-3.99-.98l-4.41 1.19zm4.62-2.66c1.19.7 2.31 1.12 3.78 1.12 3.78 0 6.93-3.08 6.93-6.93 0-3.85-3.08-6.93-6.93-6.93-3.85 0-6.93 3.08-6.93 6.93 0 1.54.49 2.73 1.19 3.92l-.7 2.52 2.59-.7zm7.98-3.85c-.07-.07-.21-.14-.42-.21-.21-.07-1.26-.63-1.4-.7-.21-.07-.35-.07-.49.07-.14.21-.56.7-.63.84-.14.14-.21.14-.42.07s-.91-.35-1.68-1.05c-.63-.56-1.05-1.26-1.19-1.47-.14-.21 0-.35.07-.42s.21-.21.28-.35c.14-.14.14-.21.21-.35.07-.14.07-.28 0-.35-.07-.07-.49-1.12-.63-1.54-.14-.42-.35-.35-.49-.35h-.42c-.14 0-.35.07-.56.28s-.7.7-.7 1.75.77 2.03.84 2.17c.07.14 1.47 2.24 3.57 3.15.49.21.91.35 1.19.42.49.14.98.14 1.33.07.42-.07 1.26-.49 1.4-.98.14-.49.14-.91.14-.98z" fill="#313131" data-name="Capa 1"/></g><path opacity=".05" fill="#313131" d="M.08.08h26.11v27.66H.08z"/><path fill="none" stroke="#313131" stroke-miterlimit="10" stroke-width=".17" d="M.08.08h26.11v27.66H.08z"/></svg>