<svg xmlns="http://www.w3.org/2000/svg" viewBox="0 0 26.28 27.83"><defs><style>.cls-3{fill:#313131}</style></defs><g id="Capa_2" data-name="Capa 2"><g id="Capa_1-2" data-name="Capa 1"><path opacity=".05" fill="#313131" d="M.08.08h26.11v27.66H.08z"/><path fill="none" stroke="#313131" stroke-miterlimit="10" stroke-width=".17" d="M.08.08h26.11v27.66H.08z"/><path class="cls-3" d="M13 22c-.75 0-1.5 0-2.25-.08s-1.49-.1-2.24-.17-1.19-.14-1.78-.21a5.14 5.14 0 01-.73-.15 2.79 2.79 0 01-1.68-1.32A3.07 3.07 0 014 18.9c-.08-.6-.17-1.19-.23-1.79a25.19 25.19 0 01-.11-2.6c0-.76 0-1.51.1-2.27A20.12 20.12 0 014 9.93a2.85 2.85 0 012.26-2.21c.41-.08.83-.13 1.25-.18l1.2-.13 1.37-.11 1.81-.09h2.7c.9 0 1.5.08 2.25.15s1.63.17 2.44.27a3.78 3.78 0 01.89.18 2.82 2.82 0 011.9 2.19 18.48 18.48 0 01.29 2.15 28.21 28.21 0 01.09 3.39c0 .72-.07 1.43-.16 2.14-.07.52-.13 1-.23 1.56a2.83 2.83 0 01-2.34 2.23c-.62.09-1.25.17-1.88.24s-1 .11-1.55.14c-.76 0-1.53.08-2.29.11h-1zm0-13.48c-1 0-1.94 0-2.9.11-.54 0-1.09.08-1.63.14s-1.2.17-1.82.23a1.51 1.51 0 00-1.3 1.25A23.36 23.36 0 005 13.61a26.94 26.94 0 00.06 3 22.5 22.5 0 00.29 2.27 1.5 1.5 0 001.23 1.22q.89.13 1.79.23c.63.07 1.26.13 1.89.17s1.5.08 2.24.09 1.56 0 2.35 0c.35 0 .69 0 1-.06l1.21-.1 1.2-.13 1.14-.15a1.52 1.52 0 001.33-1.25 23.59 23.59 0 00.35-3.37 26.86 26.86 0 00-.06-3c-.06-.76-.15-1.52-.29-2.28A1.5 1.5 0 0019.53 9c-.55-.09-1.1-.16-1.65-.21-.78-.08-1.57-.15-2.35-.2s-1.65-.04-2.48-.08z"/><path class="cls-3" d="M17.09 14.59l-6.72 3.36v-6.72z"/></g></g></svg>